<svg width="188" height="188" viewBox="0 0 188 188" fill="none" xmlns="http://www.w3.org/2000/svg">
<path d="M4.9377 187.393C2.98217 186.582 1.41797 185.018 0.607044 183.062L1.29984 182.775C0.945786 181.921 0.75 180.984 0.75 180V173.857H0V161.571H0.75V149.286H0V137H0.75V124.714H0V112.429H0.75V100.143H0V87.8571H0.75V75.5714H0V63.2857H0.75V51H0V38.7143H0.75V26.4286H0V14.1429H0.75V8C0.75 7.01558 0.945786 6.07878 1.29984 5.22499L0.607044 4.9377C1.41797 2.98217 2.98217 1.41797 4.9377 0.607044L5.22499 1.29984C6.07878 0.945786 7.01558 0.75 8 0.75H14.1428V0H26.4286V0.75H38.7143V0H51V0.75H63.2857V0H75.5714V0.75H87.8571V0H100.143V0.75H112.429V0H124.714V0.75H137V0H149.286V0.75H161.571V0H173.857V0.75H180C180.984 0.75 181.921 0.945786 182.775 1.29984L183.062 0.607045C185.018 1.41797 186.582 2.98217 187.393 4.9377L186.7 5.22499C187.054 6.07878 187.25 7.01558 187.25 8V14.1428H188V26.4286H187.25V38.7143H188V51H187.25V63.2857H188V75.5714H187.25V87.8571H188V100.143H187.25V112.429H188V124.714H187.25V137H188V149.286H187.25V161.571H188V173.857H187.25V180C187.25 180.984 187.054 181.921 186.7 182.775L187.393 183.062C186.582 185.018 185.018 186.582 183.062 187.393L182.775 186.7C181.921 187.054 180.984 187.25 180 187.25H173.857V188H161.571V187.25H149.286V188H137V187.25H124.714V188H112.429V187.25H100.143V188H87.8571V187.25H75.5714V188H63.2857V187.25H51V188H38.7143V187.25H26.4286V188H14.1429V187.25H8C7.01558 187.25 6.07878 187.054 5.22499 186.7L4.9377 187.393Z" fill="white"/>
<path d="M4.9377 187.393C2.98217 186.582 1.41797 185.018 0.607044 183.062L1.29984 182.775C0.945786 181.921 0.75 180.984 0.75 180V173.857H0V161.571H0.75V149.286H0V137H0.75V124.714H0V112.429H0.75V100.143H0V87.8571H0.75V75.5714H0V63.2857H0.75V51H0V38.7143H0.75V26.4286H0V14.1429H0.75V8C0.75 7.01558 0.945786 6.07878 1.29984 5.22499L0.607044 4.9377C1.41797 2.98217 2.98217 1.41797 4.9377 0.607044L5.22499 1.29984C6.07878 0.945786 7.01558 0.75 8 0.75H14.1428V0H26.4286V0.75H38.7143V0H51V0.75H63.2857V0H75.5714V0.75H87.8571V0H100.143V0.75H112.429V0H124.714V0.75H137V0H149.286V0.75H161.571V0H173.857V0.75H180C180.984 0.75 181.921 0.945786 182.775 1.29984L183.062 0.607045C185.018 1.41797 186.582 2.98217 187.393 4.9377L186.7 5.22499C187.054 6.07878 187.25 7.01558 187.25 8V14.1428H188V26.4286H187.25V38.7143H188V51H187.25V63.2857H188V75.5714H187.25V87.8571H188V100.143H187.25V112.429H188V124.714H187.25V137H188V149.286H187.25V161.571H188V173.857H187.25V180C187.25 180.984 187.054 181.921 186.7 182.775L187.393 183.062C186.582 185.018 185.018 186.582 183.062 187.393L182.775 186.7C181.921 187.054 180.984 187.25 180 187.25H173.857V188H161.571V187.25H149.286V188H137V187.25H124.714V188H112.429V187.25H100.143V188H87.8571V187.25H75.5714V188H63.2857V187.25H51V188H38.7143V187.25H26.4286V188H14.1429V187.25H8C7.01558 187.25 6.07878 187.054 5.22499 186.7L4.9377 187.393Z" stroke="#EEEEEE" stroke-width="1.5" stroke-dasharray="12 12"/>
<path d="M111 94H125M118 87V101" stroke="#E2E2E2" stroke-width="2" stroke-linecap="round"/>
<path d="M66 108.4C64.9688 108.4 64.0863 108.048 63.3525 107.344C62.6188 106.639 62.2513 105.791 62.25 104.8V83.2002C62.25 82.2102 62.6175 81.363 63.3525 80.6586C64.0875 79.9542 64.97 79.6014 66 79.6002H77.25L81 83.2002H96C97.0313 83.2002 97.9144 83.553 98.6494 84.2586C99.3844 84.9642 99.7513 85.8114 99.75 86.8002V104.8C99.75 105.79 99.3831 106.638 98.6494 107.344C97.9156 108.049 97.0325 108.401 96 108.4H66Z" stroke="#E2E2E2" stroke-width="2" stroke-linecap="square" stroke-linejoin="round"/>
</svg>
