<svg width="24" height="24" viewBox="0 0 24 24" fill="none" xmlns="http://www.w3.org/2000/svg">
<path d="M6.25718 21.6004C5.7658 21.6004 5.35585 21.4361 5.02731 21.1076C4.69878 20.7791 4.53416 20.3691 4.53345 19.8777V4.12306C4.53345 3.63239 4.69807 3.22279 5.02731 2.89426C5.35656 2.56572 5.76651 2.4011 6.25718 2.40039H14.2526C14.5178 2.40039 14.7721 2.50575 14.9597 2.69328L19.1739 6.9075C19.3614 7.09503 19.4668 7.34939 19.4668 7.6146V19.8777C19.4668 20.3684 19.3025 20.7783 18.974 21.1076C18.6454 21.4368 18.2351 21.6011 17.743 21.6004H6.25718ZM14.1334 7.73372H18.1587C18.2478 7.73372 18.2924 7.62601 18.2294 7.56301L14.3042 3.63777C14.2412 3.57477 14.1334 3.61939 14.1334 3.70848V7.73372Z" fill="current"/>
</svg>
