<svg width="16" height="16" viewBox="0 0 16 16" fill="none" xmlns="http://www.w3.org/2000/svg">
<g id="ic_archive_emptystar_20">
<path id="Vector (Stroke)" d="M4.49471 10.1076C4.52254 9.94532 4.46873 9.77979 4.35084 9.66492L1.07982 6.4777L5.59861 5.82103C5.76144 5.79737 5.90221 5.69511 5.97505 5.54757L7.99703 1.45187L10.0183 5.54751C10.0912 5.69508 10.2319 5.79737 10.3948 5.82103L14.9137 6.47772L11.6433 9.66495C11.5254 9.77984 11.4717 9.94539 11.4995 10.1076L12.2721 14.6083L8.22973 12.4836C8.08408 12.4071 7.9101 12.4071 7.76445 12.4837L3.72277 14.6083L4.49471 10.1076ZM0.678699 6.53599L0.679127 6.53593C0.678984 6.53595 0.678841 6.53597 0.678698 6.536L0.649937 6.33807L0.678699 6.53599ZM15.3148 6.53601C15.3147 6.53599 15.3145 6.53597 15.3144 6.53595L15.3148 6.53601ZM12.3407 15.0077C12.3407 15.0076 12.3406 15.0075 12.3406 15.0074L12.3407 15.0077ZM3.65426 15.0077L3.65431 15.0074L3.65426 15.0077Z" stroke="white" stroke-linejoin="round"/>
</g>
</svg>
