<svg width="24" height="24" viewBox="0 0 24 24" fill="none" xmlns="http://www.w3.org/2000/svg">
<path fill-rule="evenodd" clip-rule="evenodd" d="M10.9382 7.05786C10.9382 6.77719 11.0497 6.50801 11.2482 6.30954C11.4466 6.11107 11.7158 5.99957 11.9965 5.99957H12.0035C12.2842 5.99957 12.5534 6.11107 12.7519 6.30954C12.9503 6.50801 13.0618 6.77719 13.0618 7.05786V7.06492C13.0618 7.34559 12.9503 7.61477 12.7519 7.81324C12.5534 8.01171 12.2842 8.12321 12.0035 8.12321H11.9965C11.7158 8.12321 11.4466 8.01171 11.2482 7.81324C11.0497 7.61477 10.9382 7.34559 10.9382 7.06492V7.05786ZM10.9382 11.9965C10.9382 11.7159 11.0497 11.4467 11.2482 11.2482C11.4466 11.0497 11.7158 10.9383 11.9965 10.9383H12.0035C12.2842 10.9383 12.5534 11.0497 12.7519 11.2482C12.9503 11.4467 13.0618 11.7159 13.0618 11.9965V12.0036C13.0618 12.2843 12.9503 12.5535 12.7519 12.7519C12.5534 12.9504 12.2842 13.0619 12.0035 13.0619H11.9965C11.7158 13.0619 11.4466 12.9504 11.2482 12.7519C11.0497 12.5535 10.9382 12.2843 10.9382 12.0036V11.9965ZM11.9965 15.8769C11.7158 15.8769 11.4466 15.9884 11.2482 16.1869C11.0497 16.3854 10.9382 16.6545 10.9382 16.9352V16.9423C10.9382 17.223 11.0497 17.4921 11.2482 17.6906C11.4466 17.8891 11.7158 18.0006 11.9965 18.0006H12.0035C12.2842 18.0006 12.5534 17.8891 12.7519 17.6906C12.9503 17.4921 13.0618 17.223 13.0618 16.9423V16.9352C13.0618 16.6545 12.9503 16.3854 12.7519 16.1869C12.5534 15.9884 12.2842 15.8769 12.0035 15.8769H11.9965Z" fill="#B1B1B1"/>
</svg>
