<svg width="40" height="41" viewBox="0 0 40 41" fill="none" xmlns="http://www.w3.org/2000/svg">
<path d="M8 32.4688C7.175 32.4688 6.469 32.1753 5.882 31.5883C5.295 31.0013 5.001 30.2948 5 29.4688V11.4688C5 10.6438 5.294 9.93775 5.882 9.35075C6.47 8.76375 7.176 8.46975 8 8.46875L22.6316 8.46875L25.6316 12.3109H32C32.825 12.3109 33.5315 12.6049 34.1195 13.1929C34.7075 13.7809 35.001 14.4869 35 15.3109V29.4688C35 30.2938 34.7065 31.0003 34.1195 31.5883C33.5325 32.1763 32.826 32.4698 32 32.4688H8Z" fill="current"/>
<path d="M8 32.4688C7.175 32.4688 6.469 32.1753 5.882 31.5883C5.295 31.0013 5.001 30.2948 5 29.4688V11.4688C5 10.6438 5.294 9.93775 5.882 9.35075C6.47 8.76375 7.176 8.46975 8 8.46875L14.8947 8.46875L17.8947 12.3109H32C32.825 12.3109 33.5315 12.6049 34.1195 13.1929C34.7075 13.7809 35.001 14.4869 35 15.3109V29.4688C35 30.2938 34.7065 31.0003 34.1195 31.5883C33.5325 32.1763 32.826 32.4698 32 32.4688H8Z" fill="current"/>
</svg>
