<svg width="20" height="20" viewBox="0 0 20 20" fill="none" xmlns="http://www.w3.org/2000/svg">
<path fill-rule="evenodd" clip-rule="evenodd" d="M6.12723 4.36576C6.18806 4.04604 6.49693 3.83414 6.81711 3.89247L16.9902 5.74563C17.3104 5.80396 17.5207 6.11042 17.4598 6.43014L16.1563 13.2822C16.0954 13.6019 15.7866 13.8138 15.4664 13.7555L14.2911 13.5414V15.1023C14.2911 15.4278 14.0273 15.6916 13.7018 15.6916H3.38933C3.06388 15.6916 2.80005 15.4278 2.80005 15.1023V7.08806C2.80005 6.76261 3.06388 6.49878 3.38933 6.49878H5.72144L6.12723 4.36576ZM15.1069 12.4921L14.2911 12.3435V7.08806C14.2911 6.76261 14.0273 6.49878 13.7018 6.49878H6.92112L7.17659 5.15588L16.1902 6.79783L15.1069 12.4921ZM5.85497 9.68153C5.52952 9.68153 5.26569 9.94536 5.26569 10.2708C5.26569 10.5963 5.52952 10.8601 5.85497 10.8601H11.2389C11.5644 10.8601 11.8282 10.5963 11.8282 10.2708C11.8282 9.94536 11.5644 9.68153 11.2389 9.68153H5.85497ZM5.26569 12.158C5.26569 11.8326 5.52952 11.5687 5.85497 11.5687H9.3639C9.68935 11.5687 9.95319 11.8326 9.95319 12.158C9.95319 12.4835 9.68935 12.7473 9.3639 12.7473H5.85497C5.52952 12.7473 5.26569 12.4835 5.26569 12.158Z" fill="#B1B1B1"/>
</svg>
