<svg width="36" height="36" viewBox="0 0 36 36" fill="none" xmlns="http://www.w3.org/2000/svg">
<g id="ic_common_x_36">
<g id="Vector">
<path d="M11.7201 24.4401C11.4217 24.1378 11.4217 23.6517 11.7201 23.3493L23.3565 11.5599C23.6605 11.2518 24.1577 11.2518 24.4617 11.5599C24.7601 11.8622 24.7601 12.3483 24.4617 12.6507L12.8253 24.4401C12.5213 24.7482 12.0242 24.7482 11.7201 24.4401Z" fill="#B1B1B1"/>
<path d="M11.5383 11.5599C11.8423 11.2518 12.3395 11.2518 12.6435 11.5599L24.2799 23.3493C24.5783 23.6517 24.5783 24.1378 24.2799 24.4401C23.9758 24.7482 23.4787 24.7482 23.1747 24.4401L11.5383 12.6507C11.2399 12.3483 11.2399 11.8622 11.5383 11.5599Z" fill="#B1B1B1"/>
</g>
</g>
</svg>
