<svg width="28" height="28" viewBox="0 0 28 28" fill="none" xmlns="http://www.w3.org/2000/svg">
<path d="M13.9995 13.8842C12.4088 13.8842 11.0075 12.3897 10.8721 10.5523C10.803 9.62014 11.0917 8.75711 11.6841 8.12261C12.2674 7.49413 13.0914 7.14832 13.9995 7.14832C14.9016 7.14832 15.7226 7.49714 16.309 8.12863C16.9044 8.76914 17.193 9.62917 17.1239 10.5523C16.9886 12.3897 15.5873 13.8842 13.9995 13.8842ZM13.9995 8.11058C13.362 8.11058 12.7877 8.34814 12.3877 8.77816C11.9818 9.21419 11.7833 9.82162 11.8314 10.4832C11.9276 11.8063 12.92 12.9249 13.9965 12.9249C15.073 12.9249 16.0654 11.8063 16.1616 10.4832C16.2097 9.83064 16.0113 9.22622 15.5993 8.78417C15.2023 8.34814 14.631 8.11058 13.9995 8.11058Z" fill="#646464"/>
<path d="M19.2926 20.621H8.70761C8.41893 20.621 8.16032 20.5007 7.97989 20.2872C7.78443 20.0526 7.70625 19.7339 7.76338 19.4121C8.01598 18.0048 8.80985 16.82 10.0548 15.993C11.1614 15.2563 12.5627 14.8503 14.0001 14.8503C15.4375 14.8503 16.8388 15.2563 17.9454 15.993C19.1903 16.823 19.9842 18.0048 20.2368 19.4121C20.2939 19.7339 20.2157 20.0526 20.0203 20.2872C19.8399 20.5007 19.5813 20.621 19.2926 20.621ZM8.71362 19.6587H19.2866C19.2926 19.6436 19.2956 19.6196 19.2896 19.5805C18.8235 16.9914 16.2193 15.8096 14.0001 15.8096C11.7809 15.8096 9.17672 16.9914 8.71062 19.5805C8.7046 19.6196 8.70761 19.6436 8.71362 19.6587Z" fill="#646464"/>
</svg>
