<svg width="20" height="20" viewBox="0 0 20 20" fill="none" xmlns="http://www.w3.org/2000/svg">
<path fill-rule="evenodd" clip-rule="evenodd" d="M7.20222 3.51095C7.88964 3.22621 8.62642 3.07965 9.37049 3.07965C10.1145 3.07965 10.8513 3.22621 11.5388 3.51095C12.2262 3.79569 12.8508 4.21304 13.3769 4.73917C13.9031 5.2653 14.3204 5.88991 14.6051 6.57734C14.8899 7.26477 15.0364 8.00154 15.0364 8.74561C15.0364 9.48967 14.8899 10.2264 14.6051 10.9139C14.3804 11.4565 14.073 11.96 13.6946 12.4069L16.783 15.4952C16.966 15.6782 16.966 15.975 16.783 16.1581C16.5999 16.3411 16.3031 16.3411 16.12 16.1581L13.0317 13.0698C12.0125 13.9329 10.7161 14.4116 9.37049 14.4116C7.86778 14.4116 6.42662 13.8146 5.36405 12.752C4.30148 11.6895 3.70453 10.2483 3.70453 8.74561C3.70453 7.2429 4.30148 5.80174 5.36405 4.73917C5.89018 4.21304 6.51479 3.79569 7.20222 3.51095ZM9.37049 4.01715C8.74954 4.01715 8.13467 4.13946 7.56098 4.37708C6.9873 4.61471 6.46604 4.96301 6.02696 5.40208C5.1402 6.28884 4.64203 7.49154 4.64203 8.74561C4.64203 9.99967 5.1402 11.2024 6.02696 12.0891C6.91372 12.9759 8.11642 13.4741 9.37049 13.4741C10.6245 13.4741 11.8273 12.9759 12.714 12.0891C13.1531 11.6501 13.5014 11.1288 13.739 10.5551C13.9766 9.98143 14.0989 9.36656 14.0989 8.74561C14.0989 8.12466 13.9766 7.50979 13.739 6.93611C13.5014 6.36242 13.1531 5.84116 12.714 5.40208C12.2749 4.96301 11.7537 4.61471 11.18 4.37708C10.6063 4.13946 9.99144 4.01715 9.37049 4.01715Z" fill="#646464"/>
</svg>
