<svg xmlns="http://www.w3.org/2000/svg" width="159" height="32" viewBox="0 0 159 32" fill="none">
  <path d="M142.152 6.82068L134.952 20.0113V26.0521H130.656V20.0113L123.457 6.82068H128.366L132.993 15.9055L137.596 6.82068H142.152Z" fill="#1062FE"/>
  <path d="M107.698 26.0521V6.82068H121.814V10.5962H111.995V14.9616H120.728V18.6899H111.995V26.0521H107.698Z" fill="#1062FE"/>
  <path d="M100 6.82068H104.296V26.0521H100V6.82068Z" fill="#1062FE"/>
  <path d="M88.8521 26.6384L78.4778 16.3707L88.749 6L99.1233 16.2639L88.8521 26.6365V26.6384ZM79.4849 15.8158L85.7792 22.108L92.8224 16.3001L85.7792 9.77532L79.4849 15.8158Z" fill="#79A5F8"/>
  <path d="M84.825 26.6384L74.4507 16.3707L84.7219 6L95.0962 16.2639L84.825 26.6365V26.6384ZM80.7478 16.3402L84.7925 20.3442L88.7953 16.3001L84.7505 12.2961L80.7478 16.3402Z" fill="#1062FE"/>
  <path d="M74.8963 25.9561H69.9157L66.1861 19.8917H62.7634V25.9561H58.4673V6.72467H66.2097C71.0959 6.72467 73.9522 9.32033 73.9522 13.3082C73.9522 15.9511 72.7011 17.9804 70.435 19.0422L74.8963 25.9561ZM62.7634 10.5238V16.0926H66.0209C68.287 16.0926 69.656 15.1252 69.656 13.3082C69.656 11.4912 68.287 10.5238 66.0209 10.5238H62.7634Z" fill="#1062FE"/>
  <path d="M51.7446 25.9561L50.3991 22.2278H42.94L41.5945 25.9561H37.1567L44.6159 6.72467H49.0773L56.5364 25.9561H51.7446ZM44.2618 18.4995H49.0773L46.6695 11.798L44.2618 18.4995Z" fill="#1062FE"/>
  <path d="M27.2918 26.4279C21.3669 26.4279 17 22.1568 17 16.3284C17 10.5 21.3669 6.22894 27.2918 6.22894C32.5793 6.22894 36.12 9.41452 36.899 13.4732H32.5557C32.1072 11.6326 30.148 10.1696 27.3862 10.1696C23.8926 10.1696 21.2961 12.7417 21.2961 16.3284C21.2961 19.8915 23.8926 22.4872 27.3862 22.4872C30.148 22.4872 32.414 20.6702 32.7445 18.9241H37.0878C36.4977 22.794 32.6265 26.4279 27.2918 26.4279Z" fill="#1062FE"/>
</svg>